<?xml version="1.0" encoding="UTF-8"?>
<svg xmlns="http://www.w3.org/2000/svg" xmlns:xlink="http://www.w3.org/1999/xlink" width="100px" height="100px" viewBox="0 0 100 100" version="1.1">
<defs>
<linearGradient id="linear0" gradientUnits="userSpaceOnUse" x1="0.052174" y1="0.97656" x2="0.78261" y2="0.0078125" gradientTransform="matrix(82.707031,0,0,90.953125,10.015625,5.726563)">
<stop offset="0" style="stop-color:rgb(0%,0%,0%);stop-opacity:0.070496;"/>
<stop offset="1" style="stop-color:rgb(0%,0%,0%);stop-opacity:0;"/>
</linearGradient>
<linearGradient id="linear1" gradientUnits="userSpaceOnUse" x1="0.052174" y1="0.97656" x2="0.78261" y2="0.0078125" gradientTransform="matrix(83.9375,0,0,92.160156,9.402344,5.121094)">
<stop offset="0" style="stop-color:rgb(0%,0%,0%);stop-opacity:0.070496;"/>
<stop offset="1" style="stop-color:rgb(0%,0%,0%);stop-opacity:0;"/>
</linearGradient>
<linearGradient id="linear2" gradientUnits="userSpaceOnUse" x1="0.052174" y1="0.97656" x2="0.78261" y2="0.0078125" gradientTransform="matrix(85.171875,0,0,93.367187,8.785156,4.515625)">
<stop offset="0" style="stop-color:rgb(0%,0%,0%);stop-opacity:0.070496;"/>
<stop offset="1" style="stop-color:rgb(0%,0%,0%);stop-opacity:0;"/>
</linearGradient>
<linearGradient id="linear3" gradientUnits="userSpaceOnUse" x1="0.88034" y1="0.21094" x2="0.08547" y2="1.1797" gradientTransform="matrix(453.461525,0,0,496.75166,297.266507,136.027503)">
<stop offset="0" style="stop-color:rgb(85.490196%,85.490196%,85.490196%);stop-opacity:1;"/>
<stop offset="0.34923" style="stop-color:rgb(94.509804%,94.509804%,94.509804%);stop-opacity:1;"/>
<stop offset="1" style="stop-color:rgb(94.117647%,94.117647%,94.117647%);stop-opacity:1;"/>
</linearGradient>
<linearGradient id="linear4" gradientUnits="userSpaceOnUse" x1="0.63248" y1="0.32812" x2="-0.37607" y2="1.3281" gradientTransform="matrix(20.953125,0,0,22.960938,73.625,4.070312)">
<stop offset="0" style="stop-color:rgb(85.490196%,85.490196%,85.490196%);stop-opacity:1;"/>
<stop offset="0.34923" style="stop-color:rgb(94.509804%,94.509804%,94.509804%);stop-opacity:1;"/>
<stop offset="1" style="stop-color:rgb(94.117647%,94.117647%,94.117647%);stop-opacity:1;"/>
</linearGradient>
<linearGradient id="linear5" gradientUnits="userSpaceOnUse" x1="0.85827" y1="0.14062" x2="0.062992" y2="0.54688" gradientTransform="matrix(82.34375,0,0,84.183594,10.996094,11.148437)">
<stop offset="0" style="stop-color:rgb(100%,100%,100%);stop-opacity:1;"/>
<stop offset="1" style="stop-color:rgb(100%,100%,100%);stop-opacity:0;"/>
</linearGradient>
<radialGradient id="radial0" gradientUnits="userSpaceOnUse" cx="0.5" cy="0.5" fx="0.50704" fy="0.29885" r="0.5" gradientTransform="matrix(79.476562,0,0,32.847656,10.78125,57.722656)">
<stop offset="0" style="stop-color:rgb(0%,0%,0%);stop-opacity:0.298039;"/>
<stop offset="1" style="stop-color:rgb(0%,0%,0%);stop-opacity:0;"/>
</radialGradient>
<linearGradient id="linear6" gradientUnits="userSpaceOnUse" x1="1.4648" y1="-1.1486" x2="0.26408" y2="1.2905" gradientTransform="matrix(59.097656,0,0,30.714844,20.664062,51.425781)">
<stop offset="0" style="stop-color:rgb(0%,0%,0%);stop-opacity:0.298039;"/>
<stop offset="1" style="stop-color:rgb(0%,0%,0%);stop-opacity:0;"/>
</linearGradient>
<radialGradient id="radial1" gradientUnits="userSpaceOnUse" cx="0.5" cy="0.5" fx="0.5" fy="0.14943" r="0.5" gradientTransform="matrix(38.570313,0,0,16.800781,30.496094,64.953125)">
<stop offset="0" style="stop-color:rgb(0%,0%,0%);stop-opacity:0.298039;"/>
<stop offset="1" style="stop-color:rgb(0%,0%,0%);stop-opacity:0;"/>
</radialGradient>
<radialGradient id="radial2" gradientUnits="userSpaceOnUse" cx="0.5" cy="0.89286" fx="0.54118" fy="3.52" r="0.54607" gradientTransform="matrix(31.800781,0,0,6.007812,34.257812,40.804688)">
<stop offset="0" style="stop-color:rgb(100%,100%,100%);stop-opacity:1;"/>
<stop offset="1" style="stop-color:rgb(100%,100%,100%);stop-opacity:0;"/>
</radialGradient>
<linearGradient id="linear7" gradientUnits="userSpaceOnUse" x1="0.31111" y1="-0.5625" x2="0.62222" y2="0.79688" gradientTransform="matrix(11.617187,0,0,33.304688,43.207031,6.285156)">
<stop offset="0" style="stop-color:rgb(0%,0%,0%);stop-opacity:0.0941176;"/>
<stop offset="1" style="stop-color:rgb(0%,0%,0%);stop-opacity:0;"/>
</linearGradient>
<linearGradient id="linear8" gradientUnits="userSpaceOnUse" x1="0" y1="0" x2="1" y2="0" gradientTransform="matrix(42.023438,0,0,14.519531,28.898437,35.773437)">
<stop offset="0" style="stop-color:rgb(90.588235%,90.588235%,90.588235%);stop-opacity:1;"/>
<stop offset="1" style="stop-color:rgb(64.705882%,64.705882%,64.705882%);stop-opacity:1;"/>
</linearGradient>
<linearGradient id="linear9" gradientUnits="userSpaceOnUse" x1="0.64286" y1="1.2647" x2="0.57143" y2="0.04902" gradientTransform="matrix(17.359375,0,0,19.363281,63.640625,45.648438)">
<stop offset="0" style="stop-color:rgb(90.588235%,90.588235%,90.588235%);stop-opacity:1;"/>
<stop offset="1" style="stop-color:rgb(64.705882%,64.705882%,64.705882%);stop-opacity:1;"/>
</linearGradient>
<linearGradient id="linear10" gradientUnits="userSpaceOnUse" x1="0.39789" y1="0.32222" x2="0.80986" y2="0.35556" gradientTransform="matrix(39.898437,0,0,12.511719,29.726562,36.5)">
<stop offset="0" style="stop-color:rgb(90.588235%,90.588235%,90.588235%);stop-opacity:1;"/>
<stop offset="1" style="stop-color:rgb(64.705882%,64.705882%,64.705882%);stop-opacity:1;"/>
</linearGradient>
<linearGradient id="linear11" gradientUnits="userSpaceOnUse" x1="0.47535" y1="0.81081" x2="0.5" y2="-0.74324" gradientTransform="matrix(35.882812,0,0,9.207031,31.734375,39.921875)">
<stop offset="0" style="stop-color:rgb(69.803922%,63.529412%,41.176471%);stop-opacity:1;"/>
<stop offset="1" style="stop-color:rgb(42.745098%,35.686275%,9.411765%);stop-opacity:1;"/>
</linearGradient>
<linearGradient id="linear12" gradientUnits="userSpaceOnUse" x1="0.010563" y1="0.43229" x2="1.2289" y2="0.46354" gradientTransform="matrix(42.261719,0,0,28.453125,28.902344,42.992187)">
<stop offset="0" style="stop-color:rgb(90.588235%,90.588235%,90.588235%);stop-opacity:1;"/>
<stop offset="1" style="stop-color:rgb(64.705882%,64.705882%,64.705882%);stop-opacity:1;"/>
</linearGradient>
<linearGradient id="linear13" gradientUnits="userSpaceOnUse" x1="-0.22348" y1="0.38235" x2="0.5947" y2="0.46569" gradientTransform="matrix(23.707031,0,0,18.53125,21.902344,55.496094)">
<stop offset="0" style="stop-color:rgb(0%,0%,0%);stop-opacity:0.298039;"/>
<stop offset="1" style="stop-color:rgb(0%,0%,0%);stop-opacity:0;"/>
</linearGradient>
<linearGradient id="linear14" gradientUnits="userSpaceOnUse" x1="1.3833" y1="0.4902" x2="0.10833" y2="0.5049" gradientTransform="matrix(10.738281,0,0,18.765625,57.46875,48.660156)">
<stop offset="0" style="stop-color:rgb(100%,100%,100%);stop-opacity:1;"/>
<stop offset="1" style="stop-color:rgb(100%,100%,100%);stop-opacity:0;"/>
</linearGradient>
<linearGradient id="linear15" gradientUnits="userSpaceOnUse" x1="0" y1="0" x2="1" y2="0" gradientTransform="matrix(8.679687,0,0,12.75,29.375,47.476562)">
<stop offset="0" style="stop-color:rgb(100%,100%,100%);stop-opacity:1;"/>
<stop offset="1" style="stop-color:rgb(100%,100%,100%);stop-opacity:0;"/>
</linearGradient>
<linearGradient id="linear16" gradientUnits="userSpaceOnUse" x1="0.5618" y1="-1.0294" x2="0.63483" y2="0.50735" gradientTransform="matrix(9.449219,0,0,7.265625,70.964844,45.644531)">
<stop offset="0" style="stop-color:rgb(100%,100%,100%);stop-opacity:1;"/>
<stop offset="1" style="stop-color:rgb(100%,100%,100%);stop-opacity:0;"/>
</linearGradient>
</defs>
<g id="surface1">
<path style=" stroke:none;fill-rule:evenodd;fill:rgb(100%,100%,100%);fill-opacity:1;" d="M 10.722656 3.957031 L 10.722656 95.804688 L 94.542969 95.804688 L 94.542969 26.917969 L 73.585938 3.957031 Z M 10.722656 3.957031 "/>
<path style=" stroke:none;fill-rule:evenodd;fill:url(#linear0);" d="M 10.015625 5.726562 L 10.015625 96.679688 L 92.722656 96.679688 L 92.722656 28.460938 L 72.046875 5.726562 Z M 10.015625 5.726562 "/>
<path style=" stroke:none;fill-rule:evenodd;fill:url(#linear1);" d="M 9.402344 5.421875 L 9.402344 97.28125 L 93.339844 97.28125 L 93.339844 28.226562 C 86.335938 20.523438 79.332031 12.816406 72.320312 5.121094 L 9.402344 5.121094 Z M 9.402344 5.421875 "/>
<path style=" stroke:none;fill-rule:evenodd;fill:url(#linear2);" d="M 8.785156 4.820312 L 8.785156 97.882812 L 93.957031 97.882812 L 93.957031 27.996094 C 86.839844 20.167969 79.722656 12.339844 72.59375 4.515625 L 8.785156 4.515625 Z M 8.785156 4.820312 "/>
<path style="fill-rule:evenodd;fill:url(#linear3);stroke-width:1.4375;stroke-linecap:butt;stroke-linejoin:miter;stroke:rgb(0%,0%,0%);stroke-opacity:0.364706;stroke-miterlimit:4;" d="M 297.982743 136.743739 L 297.982743 632.062928 L 750.011797 632.062928 L 750.011797 260.56827 L 637.015066 136.743739 Z M 297.982743 136.743739 " transform="matrix(0.185431,0,0,0.185431,-44.4975,-21.28625)"/>
<path style=" stroke:none;fill-rule:evenodd;fill:url(#linear4);" d="M 94.578125 27.03125 C 88.261719 25.164062 80.074219 25.425781 73.890625 26.492188 C 74.960938 19.640625 75.09375 11.054688 73.625 4.070312 Z M 94.578125 27.03125 "/>
<path style=" stroke:none;fill-rule:evenodd;fill:url(#linear5);" d="M 11.375 11.148438 L 10.996094 95.332031 L 93.292969 95.332031 L 93.339844 74.523438 C 91.5 75.230469 72.910156 48.898438 49.503906 50.03125 C 26.074219 51.164062 32.136719 14.542969 11.375 11.148438 Z M 11.375 11.148438 "/>
<path style=" stroke:none;fill-rule:evenodd;fill:rgb(0%,0%,0%);fill-opacity:0.0392157;" d="M 51.230469 37.816406 C 37.027344 37.835938 29.957031 42.585938 29.875 44.929688 C 29.875 45.011719 29.902344 45.113281 29.90625 45.199219 C 29.90625 45.148438 29.875 45.113281 29.875 45.0625 C 29.488281 49.625 30.015625 53.847656 31.171875 57.566406 C 25.339844 60.308594 21.699219 64.054688 21.652344 67.632812 C 21.652344 67.695312 21.636719 67.753906 21.636719 67.820312 C 21.574219 68.175781 21.53125 68.535156 21.535156 68.886719 C 21.671875 75.34375 25.636719 86.09375 51.597656 85.5 C 75.730469 85.109375 80.011719 74.703125 80.527344 68.851562 C 80.527344 68.832031 80.542969 68.816406 80.542969 68.800781 C 80.617188 68.339844 80.613281 67.960938 80.644531 67.550781 C 80.671875 67.195312 80.722656 66.785156 80.722656 66.46875 C 80.734375 64.875 79.28125 63.054688 76.960938 61.285156 C 79.765625 59.253906 81.972656 56.792969 81.972656 53.949219 C 81.972656 45.890625 74.957031 47.746094 74.957031 47.746094 L 72.007812 48.867188 C 72.082031 47.773438 72.152344 46.679688 72.140625 45.550781 C 72.070312 45.71875 71.902344 45.871094 71.804688 46.03125 C 71.875 45.769531 71.917969 45.519531 71.890625 45.300781 C 71.636719 43.203125 65.316406 37.792969 51.230469 37.816406 Z M 30.289062 46.585938 C 30.347656 46.710938 30.386719 46.835938 30.453125 46.964844 C 30.386719 46.839844 30.347656 46.707031 30.289062 46.585938 Z M 77.179688 49.332031 C 78.105469 49.417969 78.964844 50.003906 79.632812 51.433594 C 80.996094 54.339844 77.816406 57.3125 74.359375 59.550781 C 73.167969 58.863281 71.863281 58.203125 70.414062 57.582031 C 70.882812 56.109375 71.222656 54.539062 71.507812 52.914062 C 72.21875 52.050781 74.78125 49.105469 77.179688 49.332031 Z M 77.179688 49.332031 "/>
<path style=" stroke:none;fill-rule:evenodd;fill:rgb(0%,0%,0%);fill-opacity:0.0392157;" d="M 46.355469 38.894531 C 40.984375 39.671875 35.015625 40.359375 30.984375 44.414062 C 30.417969 47.066406 30.867188 49.789062 30.96875 52.648438 C 31.148438 55.070312 33.605469 58.511719 29.992188 59.21875 C 25.730469 61.414062 21.167969 65.679688 22.691406 71.003906 C 23.980469 79.050781 32.601562 83.285156 40.003906 83.820312 C 49.335938 85.1875 59.089844 84.785156 68.125 81.96875 C 74.738281 79.789062 80.46875 73.503906 79.695312 66.164062 C 79.730469 63.621094 75.886719 63.300781 76.285156 60.902344 C 78.804688 58.6875 81.90625 55.945312 80.90625 52.148438 C 81.542969 50.324219 76.433594 47.652344 78.78125 49.097656 C 81.929688 51.246094 80.890625 56.117188 77.863281 57.882812 C 76.457031 59.683594 74.117188 61.070312 72.019531 59.480469 C 68.886719 58.597656 69.59375 54.890625 70.910156 52.734375 C 71.996094 50.382812 74.554688 48.777344 77.113281 48.53125 C 75.078125 47.566406 72.679688 50.898438 71.144531 49.027344 C 71.238281 46.398438 70.679688 43.339844 67.789062 42.441406 C 61.40625 38.558594 53.570312 38.636719 46.355469 38.894531 Z M 46.355469 38.894531 "/>
<path style=" stroke:none;fill-rule:evenodd;fill:rgb(0%,0%,0%);fill-opacity:0.0392157;" d="M 46.207031 37.164062 C 40.300781 38.050781 33.410156 38.75 29.410156 43.730469 C 28.230469 48.132812 29.378906 52.730469 30.039062 57.050781 C 26.742188 59.226562 22.65625 61.371094 21.386719 65.5 C 18.960938 72.011719 23.375 79.207031 29.097656 82.289062 C 36.808594 86.457031 45.96875 86.445312 54.519531 86.15625 C 63.078125 85.546875 72.9375 84.023438 78.410156 76.625 C 80.847656 73.082031 82.632812 67.984375 80.6875 63.867188 C 79.652344 62.363281 77.128906 61.167969 79.964844 59.839844 C 83.980469 56.675781 83.867188 48.8125 78.628906 47.03125 C 76.691406 46.121094 74.839844 46.972656 72.945312 47.496094 C 73.464844 45.492188 72.714844 43.859375 71.144531 42.625 C 64.160156 36.976562 54.738281 36.800781 46.207031 37.164062 Z M 78.003906 50.613281 C 80.75 53.492188 76.824219 57.328125 74.109375 58.296875 C 71.726562 58.488281 70.839844 55.84375 72.230469 54.175781 C 72.960938 52.015625 75.625 49.699219 78.003906 50.613281 Z M 78.003906 50.613281 "/>
<path style=" stroke:none;fill-rule:evenodd;fill:rgb(0%,0%,0%);fill-opacity:0.0392157;" d="M 41.449219 37.027344 C 36.695312 37.9375 31.445312 39.398438 28.550781 43.597656 C 27.574219 47.921875 28.445312 52.3125 29.097656 56.613281 C 24.300781 59.386719 19.046875 63.976562 20.023438 70.164062 C 20.550781 78.785156 28.847656 84.710938 36.800781 85.902344 C 46.796875 87.882812 57.277344 87.339844 67.164062 85.015625 C 75.054688 82.800781 82.65625 75.921875 82.242188 67.128906 C 82.242188 65.027344 81.402344 62.820312 79.78125 61.449219 C 81.558594 59.347656 83.710938 57.167969 83.609375 54.132812 C 84.1875 49.265625 79.429688 44.414062 74.523438 46.121094 C 73.300781 45.878906 73.605469 43.082031 71.945312 42.328125 C 64.835938 36.066406 54.640625 36.070312 45.714844 36.363281 C 44.292969 36.582031 42.871094 36.808594 41.449219 37.027344 Z M 77.457031 51.394531 C 79.238281 54.007812 75.429688 57.652344 72.984375 56.949219 C 71.710938 54.621094 75.015625 50.96875 77.457031 51.394531 Z M 77.457031 51.394531 "/>
<path style=" stroke:none;fill-rule:evenodd;fill:url(#radial0);" d="M 10.78125 72.898438 C 10.59375 65.84375 26.835938 57.988281 48.5 57.722656 C 70.386719 57.453125 90.292969 65.84375 90.257812 71.464844 C 90.21875 77.269531 86.101562 90.125 51.195312 90.570312 C 16.285156 91.199219 10.96875 79.769531 10.78125 72.898438 Z M 10.78125 72.898438 "/>
<path style=" stroke:none;fill-rule:evenodd;fill:rgb(100%,100%,100%);fill-opacity:1;" d="M 20.566406 66.679688 C 20.429688 60.085938 32.503906 52.742188 48.613281 52.492188 C 64.890625 52.242188 79.695312 60.085938 79.667969 65.34375 C 79.636719 70.769531 76.574219 82.792969 50.617188 83.207031 C 24.65625 83.789062 20.707031 73.109375 20.566406 66.679688 Z M 20.566406 66.679688 "/>
<path style=" stroke:none;fill-rule:evenodd;fill:url(#linear6);" d="M 20.664062 65.613281 C 20.523438 59.019531 32.601562 51.675781 48.710938 51.425781 C 64.988281 51.175781 79.789062 59.019531 79.761719 64.277344 C 79.730469 69.703125 76.667969 81.722656 50.710938 82.140625 C 24.753906 82.722656 20.800781 72.039062 20.664062 65.613281 Z M 20.664062 65.613281 "/>
<path style=" stroke:none;fill-rule:evenodd;fill:url(#radial1);" d="M 30.496094 72.714844 C 30.40625 69.109375 38.289062 65.089844 48.800781 64.953125 C 59.425781 64.816406 69.085938 69.109375 69.066406 71.984375 C 69.050781 74.953125 67.050781 81.527344 50.109375 81.753906 C 33.167969 82.078125 30.589844 76.230469 30.496094 72.714844 Z M 30.496094 72.714844 "/>
<path style=" stroke:none;fill-rule:evenodd;fill:url(#radial2);" d="M 36.011719 46.8125 C 42.382812 44.308594 53.871094 42.585938 62.828125 46.59375 C 64.238281 47.542969 67.363281 46.308594 66.058594 45.3125 C 63.140625 42.808594 54.582031 40.789062 49.28125 40.804688 C 43.980469 40.820312 37.179688 42.277344 34.257812 45.394531 C 33.425781 46.339844 34.777344 47.523438 36.011719 46.8125 Z M 36.011719 46.8125 "/>
<path style=" stroke:none;fill-rule:evenodd;fill:url(#linear7);" d="M 47.109375 39.589844 C 45.648438 31.558594 41.234375 33.035156 44.234375 26.503906 C 47.085938 20.28125 50.011719 16.195312 44.539062 6.285156 C 55.300781 10.859375 49.804688 20.226562 53.613281 27.382812 C 57.496094 34.675781 51.324219 34.394531 47.109375 39.589844 Z M 47.109375 39.589844 "/>
<path style=" stroke:none;fill-rule:evenodd;fill:rgb(0%,0%,0%);fill-opacity:0.0431373;" d="M 55.039062 22.8125 C 55.039062 22.8125 56.851562 20.035156 54.570312 17.183594 C 52.324219 14.375 58.351562 13.738281 56.859375 5.957031 C 62.910156 6.929688 60.886719 23.285156 55.039062 22.8125 Z M 55.039062 22.8125 "/>
<path style=" stroke:none;fill-rule:evenodd;fill:url(#linear8);" d="M 28.898438 42.855469 C 28.976562 40.519531 36.058594 35.792969 50.265625 35.773438 C 64.351562 35.753906 70.664062 41.125 70.921875 43.210938 C 71.179688 45.292969 67.65625 49.800781 49.554688 50.292969 C 31.335938 50.785156 28.902344 45.191406 28.898438 42.855469 Z M 28.898438 42.855469 "/>
<path style=" stroke:none;fill-rule:evenodd;fill:url(#linear9);" d="M 70.148438 51.238281 C 70.148438 51.238281 75.992188 43.644531 78.664062 49.320312 C 81.332031 54.996094 66.476562 61.003906 66.476562 61.003906 L 63.640625 65.011719 C 63.640625 65.011719 81 59.835938 81 51.824219 C 81 43.808594 73.988281 45.648438 73.988281 45.648438 L 70.484375 46.984375 Z M 70.148438 51.238281 "/>
<path style=" stroke:none;fill-rule:evenodd;fill:url(#linear10);" d="M 29.726562 43.464844 C 29.472656 41.378906 37.125 36.636719 49.558594 36.5 C 62.109375 36.363281 69.367188 40.550781 69.625 42.636719 C 69.882812 44.722656 66.476562 48.519531 51.09375 49.011719 C 35.828125 49.503906 29.984375 45.550781 29.726562 43.464844 Z M 29.726562 43.464844 "/>
<path style=" stroke:none;fill-rule:evenodd;fill:url(#linear11);" d="M 31.734375 45.824219 C 31.457031 44.289062 37.292969 39.980469 48.613281 39.921875 C 60.019531 39.78125 67.34375 43.9375 67.617188 45.472656 C 67.894531 47.003906 57 48.988281 50.265625 49.128906 C 43.535156 49.191406 32.007812 47.359375 31.734375 45.824219 Z M 31.734375 45.824219 "/>
<path style=" stroke:none;fill-rule:evenodd;fill:url(#linear12);" d="M 28.902344 42.992188 C 27.839844 55.464844 33.640625 65.5 40.585938 69.078125 C 47.53125 72.660156 54.082031 72.050781 60.300781 68.371094 C 66.519531 64.691406 71.316406 55.074219 71.164062 43.464844 C 68.003906 51.601562 29.175781 53.183594 28.902344 42.992188 Z M 28.902344 42.992188 "/>
<path style=" stroke:none;fill-rule:evenodd;fill:url(#linear13);" d="M 31.085938 74.027344 C 25.632812 73.722656 20.429688 70.6875 21.902344 64.679688 C 23.378906 58.5 33.144531 55.355469 37.09375 55.496094 C 41.046875 55.636719 46.582031 62.507812 45.609375 65.511719 C 44.636719 68.519531 36.707031 74.5 31.085938 74.027344 Z M 31.085938 74.027344 "/>
<path style=" stroke:none;fill-rule:evenodd;fill:url(#linear14);" d="M 57.46875 57.039062 C 59.121094 56.449219 66.558594 55.976562 68.207031 48.660156 C 69.035156 55.269531 66.875 58.386719 66.085938 60.226562 C 65.292969 62.183594 58.824219 68.96875 58.648438 67.425781 Z M 57.46875 57.039062 "/>
<path style=" stroke:none;fill-rule:evenodd;fill:url(#linear15);" d="M 31.378906 56.921875 C 30.238281 55.703125 28.78125 46.0625 29.375 47.476562 C 29.84375 48.894531 34.332031 51.355469 35.984375 50.902344 C 37.519531 50.449219 39.683594 59.222656 36.691406 60.226562 C 33.582031 61.230469 32.519531 58.023438 31.378906 56.921875 Z M 31.378906 56.921875 "/>
<path style=" stroke:none;fill-rule:evenodd;fill:url(#linear16);" d="M 71.136719 46.933594 L 70.964844 48.601562 C 70.710938 50.1875 76.425781 43.167969 79.179688 49.511719 C 79.449219 51.007812 79.164062 52.910156 79.164062 52.910156 C 79.164062 52.910156 80.734375 51.109375 80.414062 49.402344 C 78.535156 43.210938 72.3125 46.402344 71.136719 46.933594 Z M 71.136719 46.933594 "/>
</g>
</svg>
